<svg width="190" height="32" viewBox="0 0 190 32" fill="none" xmlns="http://www.w3.org/2000/svg">
<rect width="190" height="32" fill="#F5F5F5"/>
<g id="Shopping App" clip-path="url(#clip0_2_2)">
<rect width="1920" height="6814" transform="translate(-314 -1408)" fill="white"/>
<g id="New Arrivals">
<g id="Group 78">
<path id="Vector 8" d="M85.8064 3.64148C66.7383 7.61074 22.8817 18.2972 0 29.289C57.8853 34.1742 176.925 35.884 190 3.64148C171.613 0.893534 125.032 -2.95359 85.8064 3.64148Z" fill="#EBD96B"/>
<path id="NEW ARRIVALS" d="M-179.008 19H-189.664L-200.944 1.912V19H-211.6V-14.984H-200.944L-189.664 2.392V-14.984H-179.008V19ZM-160.658 -6.488V-2.312H-150.098V5.704H-160.658V10.504H-148.658V19H-171.314V-14.984H-148.658V-6.488H-160.658ZM-92.8019 -14.984L-100.578 19H-113.826L-117.762 -0.296L-121.698 19H-134.946L-142.722 -14.984H-131.25L-128.178 6.424L-123.57 -14.984H-111.954L-107.346 6.424L-104.274 -14.984H-92.8019ZM-53.2724 13.864H-64.6004L-66.2804 19H-77.4644L-65.0324 -14.984H-52.7444L-40.3604 19H-51.5924L-53.2724 13.864ZM-55.8644 5.848L-58.9364 -3.608L-62.0084 5.848H-55.8644ZM-17.9714 19L-24.3554 6.808H-24.4034V19H-35.0594V-14.984H-19.2194C-16.4674 -14.984 -14.1154 -14.488 -12.1634 -13.496C-10.2114 -12.536 -8.75538 -11.208 -7.79538 -9.512C-6.80338 -7.848 -6.30738 -5.96 -6.30738 -3.848C-6.30738 -1.576 -6.94738 0.439999 -8.22738 2.2C-9.47538 3.96 -11.2834 5.224 -13.6514 5.992L-6.25938 19H-17.9714ZM-24.4034 -0.296H-20.1794C-19.1554 -0.296 -18.3874 -0.52 -17.8754 -0.968C-17.3634 -1.448 -17.1074 -2.184 -17.1074 -3.176C-17.1074 -4.072 -17.3794 -4.776 -17.9234 -5.288C-18.4354 -5.8 -19.1874 -6.056 -20.1794 -6.056H-24.4034V-0.296ZM17.0649 19L10.6809 6.808H10.6329V19H-0.0231262V-14.984H15.8169C18.5689 -14.984 20.9209 -14.488 22.8729 -13.496C24.8249 -12.536 26.2809 -11.208 27.2409 -9.512C28.2329 -7.848 28.7289 -5.96 28.7289 -3.848C28.7289 -1.576 28.0889 0.439999 26.8089 2.2C25.5609 3.96 23.7529 5.224 21.3849 5.992L28.7769 19H17.0649ZM10.6329 -0.296H14.8569C15.8809 -0.296 16.6489 -0.52 17.1609 -0.968C17.6729 -1.448 17.9289 -2.184 17.9289 -3.176C17.9289 -4.072 17.6569 -4.776 17.1129 -5.288C16.6009 -5.8 15.8489 -6.056 14.8569 -6.056H10.6329V-0.296ZM45.6691 -14.984V19H35.0131V-14.984H45.6691ZM87.5859 -14.984L76.1619 19H62.3859L50.9619 -14.984H62.2899L69.2979 8.392L76.2579 -14.984H87.5859ZM114.643 13.864H103.315L101.635 19H90.4513L102.883 -14.984H115.171L127.555 19H116.323L114.643 13.864ZM112.051 5.848L108.979 -3.608L105.907 5.848H112.051ZM143.512 10.936H153.784V19H132.856V-14.984H143.512V10.936ZM173.313 19.336C169.249 19.336 165.889 18.392 163.233 16.504C160.609 14.584 159.185 11.784 158.961 8.104H170.289C170.449 10.056 171.313 11.032 172.881 11.032C173.457 11.032 173.937 10.904 174.321 10.648C174.737 10.36 174.945 9.928 174.945 9.352C174.945 8.552 174.513 7.912 173.649 7.432C172.785 6.92 171.441 6.344 169.617 5.704C167.441 4.936 165.633 4.184 164.193 3.448C162.785 2.712 161.569 1.64 160.545 0.231998C159.521 -1.176 159.025 -2.984 159.057 -5.192C159.057 -7.4 159.617 -9.272 160.737 -10.808C161.889 -12.376 163.441 -13.56 165.393 -14.36C167.377 -15.16 169.601 -15.56 172.065 -15.56C176.225 -15.56 179.521 -14.6 181.953 -12.68C184.417 -10.76 185.713 -8.056 185.841 -4.568H174.369C174.337 -5.528 174.097 -6.216 173.649 -6.632C173.201 -7.048 172.657 -7.256 172.017 -7.256C171.569 -7.256 171.201 -7.096 170.913 -6.776C170.625 -6.488 170.481 -6.072 170.481 -5.528C170.481 -4.76 170.897 -4.12 171.729 -3.608C172.593 -3.128 173.953 -2.536 175.809 -1.832C177.953 -1.032 179.713 -0.264 181.089 0.472C182.497 1.208 183.713 2.232 184.737 3.544C185.761 4.856 186.273 6.504 186.273 8.488C186.273 10.568 185.761 12.44 184.737 14.104C183.713 15.736 182.225 17.016 180.273 17.944C178.321 18.872 176.001 19.336 173.313 19.336Z" fill="black"/>
</g>
</g>
</g>
<defs>
<clipPath id="clip0_2_2">
<rect width="1920" height="6814" fill="white" transform="translate(-314 -1408)"/>
</clipPath>
</defs>
</svg>
